<svg xmlns="http://www.w3.org/2000/svg" viewBox="0 0 720 380" width="720" height="380" role="img" aria-labelledby="ht hd">
<title id="ht">Remote의 연결 구조</title>
<desc id="hd">PC 호스트와 폰·태블릿(또는 다른 PC)은 화면과 입력을 직접(P2P, 암호화) 주고받습니다. 연결을 시작할 때의 짧은 신호와 기기 목록만 내가 만든 Firebase 프로젝트를 거칩니다. 개발자 서버와 중계 서버는 없습니다.</desc>
<style>text{font-family:system-ui,-apple-system,'Segoe UI','Apple SD Gothic Neo','Malgun Gothic','Noto Sans KR','Noto Sans CJK KR',sans-serif}</style>
<rect width="720" height="380" rx="24" fill="#2B2015"/>
<rect x="250" y="28" width="220" height="74" rx="14" fill="#4B3A2A" stroke="#93A2AA" stroke-width="1.5"/>
<text x="360" y="60" font-size="17" font-weight="700" fill="#EFE6D3" text-anchor="middle">내 Firebase 프로젝트</text>
<text x="360" y="84" font-size="12.5" fill="#93A2AA" text-anchor="middle">로그인 · 기기 목록 · 연결 신호</text>
<path d="M300 102 L175 192" stroke="#93A2AA" stroke-width="2" stroke-dasharray="6 6" fill="none"/>
<path d="M420 102 L548 172" stroke="#93A2AA" stroke-width="2" stroke-dasharray="6 6" fill="none"/>
<text x="196" y="140" font-size="12.5" fill="#93A2AA" text-anchor="middle">연결할 때만</text>
<text x="528" y="128" font-size="12.5" fill="#93A2AA" text-anchor="middle">연결할 때만</text>
<rect x="56" y="194" width="196" height="122" rx="10" fill="#6E4428"/>
<rect x="68" y="205" width="172" height="96" rx="4" fill="#4B3A2A"/>
<text x="154" y="248" font-size="16" font-weight="700" fill="#EFE6D3" text-anchor="middle">PC 호스트</text>
<text x="154" y="272" font-size="12.5" fill="#93A2AA" text-anchor="middle">Windows · 리눅스</text>
<rect x="139" y="316" width="30" height="14" fill="#6E4428"/>
<rect x="114" y="330" width="80" height="6" rx="3" fill="#6E4428"/>
<path d="M258 255 H462" stroke="#C88A4A" stroke-width="6" stroke-linecap="round" fill="none"/>
<path d="M270 245 L258 255 L270 265 M450 245 L462 255 L450 265" stroke="#C88A4A" stroke-width="4" stroke-linecap="round" stroke-linejoin="round" fill="none"/>
<text x="360" y="238" font-size="14" font-weight="700" fill="#E6B873" text-anchor="middle">화면 · 입력은 직접</text>
<text x="360" y="284" font-size="12.5" fill="#93A2AA" text-anchor="middle">P2P · 암호화 · 중계 서버 없음</text>
<rect x="476" y="172" width="84" height="168" rx="16" fill="#1d150e" stroke="#8B7E68" stroke-width="2"/>
<rect x="484" y="186" width="68" height="140" rx="9" fill="#4B3A2A"/>
<rect x="490" y="193" width="27" height="20" rx="2" fill="#7a5536"/><rect x="520" y="193" width="27" height="20" rx="2" fill="#56707f"/>
<rect x="490" y="216" width="27" height="20" rx="2" fill="#56664c"/><rect x="520" y="216" width="27" height="20" rx="2" fill="#3a302a"/>
<rect x="489" y="192" width="29" height="22" rx="3" fill="none" stroke="#C88A4A" stroke-width="1.5"/>
<text x="518" y="276" font-size="12.5" font-weight="700" fill="#EFE6D3" text-anchor="middle">Remote</text>
<text x="518" y="293" font-size="12.5" font-weight="700" fill="#EFE6D3" text-anchor="middle">앱</text>
<rect x="584" y="222" width="104" height="66" rx="7" fill="#6E4428"/>
<rect x="591" y="229" width="90" height="52" rx="3" fill="#4B3A2A"/>
<text x="636" y="260" font-size="12.5" font-weight="700" fill="#EFE6D3" text-anchor="middle">다른 PC</text>
<rect x="627" y="288" width="18" height="10" fill="#6E4428"/><rect x="612" y="298" width="48" height="5" rx="2.5" fill="#6E4428"/>
<text x="582" y="362" font-size="12.5" fill="#93A2AA" text-anchor="middle">폰·태블릿, 또는 다른 PC의 호스트 앱</text>
</svg>
